<svg width="154" height="154" viewBox="0 0 154 154" fill="none" xmlns="http://www.w3.org/2000/svg">
<path d="M122.237 31.5059C116.355 25.5636 109.347 20.8521 101.625 17.6462C93.902 14.4403 85.6182 12.8043 77.2566 12.8334C42.2216 12.8334 13.6674 41.3876 13.6674 76.4226C13.6674 87.6517 16.6191 98.5601 22.1374 108.185L13.1541 141.167L46.8416 132.312C56.1457 137.381 66.6049 140.076 77.2566 140.076C112.292 140.076 140.846 111.522 140.846 76.4867C140.846 59.4826 134.237 43.5051 122.237 31.5059ZM77.2566 129.296C67.7599 129.296 58.4557 126.729 50.3066 121.917L48.3816 120.762L28.3616 126.023L33.6874 106.517L32.4041 104.528C27.1279 96.1023 24.3264 86.3635 24.3191 76.4226C24.3191 47.2909 48.0607 23.5492 77.1924 23.5492C91.3091 23.5492 104.592 29.0676 114.537 39.0776C119.462 43.9797 123.365 49.8105 126.019 56.232C128.674 62.6536 130.027 69.5382 130.002 76.4867C130.13 105.618 106.388 129.296 77.2566 129.296ZM106.26 89.7692C104.656 88.9992 96.8274 85.1492 95.4157 84.5717C93.9399 84.0584 92.9132 83.8017 91.8224 85.3417C90.7316 86.9459 87.7157 90.5392 86.8174 91.5659C85.9191 92.6567 84.9566 92.785 83.3524 91.9509C81.7482 91.1809 76.6149 89.4484 70.5832 84.0584C65.8349 79.8234 62.6907 74.6259 61.7282 73.0217C60.8299 71.4176 61.5999 70.5834 62.4341 69.7492C63.1399 69.0434 64.0382 67.8884 64.8082 66.9901C65.5782 66.0917 65.8991 65.3859 66.4124 64.3592C66.9257 63.2684 66.6691 62.3701 66.2841 61.6001C65.8991 60.8301 62.6907 53.0017 61.4074 49.7934C60.1241 46.7134 58.7766 47.0984 57.8141 47.0342H54.7341C53.6432 47.0342 51.9749 47.4192 50.4991 49.0234C49.0874 50.6276 44.9807 54.4776 44.9807 62.3059C44.9807 70.1342 50.6916 77.7059 51.4616 78.7326C52.2316 79.8234 62.6907 95.8651 78.6041 102.731C82.3899 104.399 85.3416 105.362 87.6516 106.068C91.4374 107.287 94.9024 107.094 97.6616 106.709C100.742 106.26 107.094 102.859 108.377 99.1376C109.725 95.4159 109.725 92.2717 109.276 91.5659C108.827 90.8601 107.864 90.5392 106.26 89.7692Z" fill="#4ECB71"/>
</svg>
