<svg width="30" height="35" viewBox="0 0 30 35" fill="none" xmlns="http://www.w3.org/2000/svg">
<path d="M29.1964 32.1429H27.8571V1.60714C27.8571 0.719531 27.1376 0 26.25 0H3.75C2.86239 0 2.14286 0.719531 2.14286 1.60714V32.1429H0.803571C0.359799 32.1429 0 32.5027 0 32.9464V34.2857H30V32.9464C30 32.5027 29.6402 32.1429 29.1964 32.1429ZM8.57143 5.08929C8.57143 4.64551 8.93123 4.28571 9.375 4.28571H12.0536C12.4973 4.28571 12.8571 4.64551 12.8571 5.08929V7.76786C12.8571 8.21163 12.4973 8.57143 12.0536 8.57143H9.375C8.93123 8.57143 8.57143 8.21163 8.57143 7.76786V5.08929ZM8.57143 11.5179C8.57143 11.0741 8.93123 10.7143 9.375 10.7143H12.0536C12.4973 10.7143 12.8571 11.0741 12.8571 11.5179V14.1964C12.8571 14.6402 12.4973 15 12.0536 15H9.375C8.93123 15 8.57143 14.6402 8.57143 14.1964V11.5179ZM12.0536 21.4286H9.375C8.93123 21.4286 8.57143 21.0688 8.57143 20.625V17.9464C8.57143 17.5027 8.93123 17.1429 9.375 17.1429H12.0536C12.4973 17.1429 12.8571 17.5027 12.8571 17.9464V20.625C12.8571 21.0688 12.4973 21.4286 12.0536 21.4286ZM17.1429 32.1429H12.8571V26.5179C12.8571 26.0741 13.2169 25.7143 13.6607 25.7143H16.3393C16.7831 25.7143 17.1429 26.0741 17.1429 26.5179V32.1429ZM21.4286 20.625C21.4286 21.0688 21.0688 21.4286 20.625 21.4286H17.9464C17.5027 21.4286 17.1429 21.0688 17.1429 20.625V17.9464C17.1429 17.5027 17.5027 17.1429 17.9464 17.1429H20.625C21.0688 17.1429 21.4286 17.5027 21.4286 17.9464V20.625ZM21.4286 14.1964C21.4286 14.6402 21.0688 15 20.625 15H17.9464C17.5027 15 17.1429 14.6402 17.1429 14.1964V11.5179C17.1429 11.0741 17.5027 10.7143 17.9464 10.7143H20.625C21.0688 10.7143 21.4286 11.0741 21.4286 11.5179V14.1964ZM21.4286 7.76786C21.4286 8.21163 21.0688 8.57143 20.625 8.57143H17.9464C17.5027 8.57143 17.1429 8.21163 17.1429 7.76786V5.08929C17.1429 4.64551 17.5027 4.28571 17.9464 4.28571H20.625C21.0688 4.28571 21.4286 4.64551 21.4286 5.08929V7.76786Z" fill="white"/>
</svg>
