<svg width="36" height="36" viewBox="0 0 36 36" fill="none" xmlns="http://www.w3.org/2000/svg">
<path d="M11.625 3.75C11.625 3.45163 11.5065 3.16548 11.2955 2.9545C11.0845 2.74353 10.7984 2.625 10.5 2.625C10.2016 2.625 9.91548 2.74353 9.7045 2.9545C9.49353 3.16548 9.375 3.45163 9.375 3.75V6.12C7.215 6.2925 5.799 6.7155 4.758 7.758C3.7155 8.799 3.2925 10.2165 3.1185 12.375H32.8815C32.7075 10.215 32.2845 8.799 31.242 7.758C30.201 6.7155 28.7835 6.2925 26.625 6.1185V3.75C26.625 3.45163 26.5065 3.16548 26.2955 2.9545C26.0845 2.74353 25.7984 2.625 25.5 2.625C25.2016 2.625 24.9155 2.74353 24.7045 2.9545C24.4935 3.16548 24.375 3.45163 24.375 3.75V6.0195C23.3775 6 22.2585 6 21 6H15C13.7415 6 12.6225 6 11.625 6.0195V3.75Z" fill="white"/>
<path fill-rule="evenodd" clip-rule="evenodd" d="M3 18C3 16.7415 3 15.6225 3.0195 14.625H32.9805C33 15.6225 33 16.7415 33 18V21C33 26.6565 33 29.4855 31.242 31.242C29.4855 33 26.6565 33 21 33H15C9.3435 33 6.5145 33 4.758 31.242C3 29.4855 3 26.6565 3 21V18ZM25.5 21C25.8978 21 26.2794 20.842 26.5607 20.5607C26.842 20.2794 27 19.8978 27 19.5C27 19.1022 26.842 18.7206 26.5607 18.4393C26.2794 18.158 25.8978 18 25.5 18C25.1022 18 24.7206 18.158 24.4393 18.4393C24.158 18.7206 24 19.1022 24 19.5C24 19.8978 24.158 20.2794 24.4393 20.5607C24.7206 20.842 25.1022 21 25.5 21ZM25.5 27C25.8978 27 26.2794 26.842 26.5607 26.5607C26.842 26.2794 27 25.8978 27 25.5C27 25.1022 26.842 24.7206 26.5607 24.4393C26.2794 24.158 25.8978 24 25.5 24C25.1022 24 24.7206 24.158 24.4393 24.4393C24.158 24.7206 24 25.1022 24 25.5C24 25.8978 24.158 26.2794 24.4393 26.5607C24.7206 26.842 25.1022 27 25.5 27ZM19.5 19.5C19.5 19.8978 19.342 20.2794 19.0607 20.5607C18.7794 20.842 18.3978 21 18 21C17.6022 21 17.2206 20.842 16.9393 20.5607C16.658 20.2794 16.5 19.8978 16.5 19.5C16.5 19.1022 16.658 18.7206 16.9393 18.4393C17.2206 18.158 17.6022 18 18 18C18.3978 18 18.7794 18.158 19.0607 18.4393C19.342 18.7206 19.5 19.1022 19.5 19.5ZM19.5 25.5C19.5 25.8978 19.342 26.2794 19.0607 26.5607C18.7794 26.842 18.3978 27 18 27C17.6022 27 17.2206 26.842 16.9393 26.5607C16.658 26.2794 16.5 25.8978 16.5 25.5C16.5 25.1022 16.658 24.7206 16.9393 24.4393C17.2206 24.158 17.6022 24 18 24C18.3978 24 18.7794 24.158 19.0607 24.4393C19.342 24.7206 19.5 25.1022 19.5 25.5ZM10.5 21C10.8978 21 11.2794 20.842 11.5607 20.5607C11.842 20.2794 12 19.8978 12 19.5C12 19.1022 11.842 18.7206 11.5607 18.4393C11.2794 18.158 10.8978 18 10.5 18C10.1022 18 9.72064 18.158 9.43934 18.4393C9.15804 18.7206 9 19.1022 9 19.5C9 19.8978 9.15804 20.2794 9.43934 20.5607C9.72064 20.842 10.1022 21 10.5 21ZM10.5 27C10.8978 27 11.2794 26.842 11.5607 26.5607C11.842 26.2794 12 25.8978 12 25.5C12 25.1022 11.842 24.7206 11.5607 24.4393C11.2794 24.158 10.8978 24 10.5 24C10.1022 24 9.72064 24.158 9.43934 24.4393C9.15804 24.7206 9 25.1022 9 25.5C9 25.8978 9.15804 26.2794 9.43934 26.5607C9.72064 26.842 10.1022 27 10.5 27Z" fill="white"/>
</svg>
